<?xml version="1.0" standalone="no"?>
<!DOCTYPE svg PUBLIC "-//W3C//DTD SVG 20010904//EN"
 "http://www.w3.org/TR/2001/REC-SVG-20010904/DTD/svg10.dtd">
<svg version="1.0" xmlns="http://www.w3.org/2000/svg"
 width="231.000000pt" height="217.000000pt" viewBox="0 0 231.000000 217.000000"
 preserveAspectRatio="xMidYMid meet">

<g transform="translate(0.000000,217.000000) scale(0.100000,-0.100000)"
fill="#000000" stroke="none">
<path d="M975 1681 c-55 -34 -69 -57 -73 -126 -5 -75 23 -147 82 -213 44 -48
126 -92 173 -92 42 0 93 25 118 58 30 40 28 161 -3 220 -34 65 -91 122 -147
148 -60 29 -110 30 -150 5z m119 -41 c14 -5 44 -26 66 -46 119 -108 122 -294
5 -294 -143 0 -281 235 -190 325 26 27 73 33 119 15z"/>
<path d="M1467 1630 c-107 -84 -13 -369 131 -396 42 -8 94 14 118 51 58 88 1
270 -105 342 -44 30 -109 31 -144 3z m138 -62 c49 -42 77 -101 82 -173 4 -51
2 -64 -17 -89 -20 -24 -28 -27 -58 -22 -73 11 -142 116 -142 216 0 71 19 100
65 100 24 0 45 -9 70 -32z"/>
<path d="M613 1421 c-58 -27 -87 -85 -80 -157 15 -142 141 -274 264 -274 44 0
58 5 88 31 81 72 66 214 -36 324 -77 83 -162 110 -236 76z m122 -50 c109 -49
181 -197 140 -285 -20 -41 -45 -51 -106 -43 -136 18 -245 246 -154 324 31 28
66 29 120 4z"/>
<path d="M1230 1101 c-87 -29 -165 -93 -199 -165 -28 -60 -94 -418 -89 -478
10 -99 95 -179 198 -186 83 -6 143 28 230 133 90 108 131 142 217 181 40 19
106 49 147 68 59 27 81 43 102 76 61 92 34 232 -56 295 -34 24 -63 31 -203 51
-192 28 -313 37 -347 25z m286 -67 c204 -28 243 -40 276 -87 28 -40 36 -132
15 -173 -23 -45 -44 -60 -157 -107 -160 -67 -199 -95 -318 -233 -39 -45 -86
-88 -105 -97 -72 -34 -165 -12 -211 50 -32 44 -31 104 9 307 20 104 42 204 50
222 20 47 86 109 136 127 61 21 91 21 305 -9z"/>
<path d="M478 914 c-33 -17 -58 -62 -58 -102 0 -42 46 -126 92 -167 49 -45
132 -85 174 -85 37 0 93 36 112 70 7 15 10 41 7 64 -22 148 -217 280 -327 220z
m160 -64 c121 -70 164 -218 68 -235 -49 -10 -98 9 -154 60 -146 131 -78 269
86 175z"/>
</g>
</svg>
